<?xml version="1.0" encoding="UTF-8"?>
<svg id="Layer_1" data-name="Layer 1" xmlns="http://www.w3.org/2000/svg" viewBox="0 0 1920 1080">
  <defs>
    <style>
      .cls-1 {
        fill: #0d163f;
      }

      .cls-2 {
        fill-rule: evenodd;
      }

      .cls-2, .cls-3 {
        fill: #1bd989;
      }
    </style>
  </defs>
  <g>
    <path class="cls-1" d="M586.19,254.2635h238.8352c-19.4929-69.9668-83.7822-121.4475-159.8727-121.4475-93.7004,0-169.4951,78.0408-165.8361,172.5214,3.3329,86.0587,73.0181,155.8325,159.0727,159.2696,54.7541,2.1869,104.0043-22.317,135.756-61.5431,7.8137-9.6531,19.5845-15.2373,32.0038-15.2373h78.1029c-36.1141,96.9866-129.552,166.0455-239.0993,166.0455-104.4635,0-194.2703-62.7867-233.702-152.6928l-45.0931,93.9663-49.1866-102.4831,95.2205-198.4296.0165-.0165,5.2488-10.9269c1.469-2.8885,2.9875-5.7439,4.5555-8.5828,1.1554-2.0301,2.3108-4.0603,3.4992-6.0574.5778-.9575,1.1554-1.9149,1.7331-2.8554.5612-.9244,1.1225-1.8488,1.7001-2.7563.6107-.974,1.2379-1.9314,1.8486-2.8885.5942-.9244,1.2049-1.8488,1.8156-2.7732,3.6808-5.5126,7.5761-10.8769,11.6694-16.0764.2807-.3796.5778-.7592.8914-1.1223.3961-.5283.8253-1.0401,1.2379-1.5514.7427-.9244,1.502-1.8488,2.2447-2.7567.6602-.7922,1.3204-1.5845,1.9972-2.3602.7097-.8418,1.436-1.6836,2.1622-2.5089,1.0893-1.2544,2.1952-2.4924,3.3175-3.7303.6603-.7261,1.304-1.4358,1.9642-2.1458,7.246-7.7906,14.9871-15.1189,23.1408-21.969.8418-.7096,1.7001-1.4193,2.5583-2.1124.8583-.6935,1.7166-1.3866,2.5914-2.0797.8583-.6935,1.7331-1.3701,2.6079-2.0467.8747-.677,1.7496-1.3536,2.6408-2.014,1.7661-1.3366,3.5487-2.6406,5.3643-3.9281,1.7661-1.271,3.5322-2.4924,5.3314-3.7137.0495-.033.0825-.0496.132-.0826.9243-.627,1.8486-1.2379,2.7729-1.8484.9243-.6109,1.8651-1.2049,2.806-1.8158,1.8651-1.1884,3.7633-2.3602,5.6614-3.499.9573-.5779,1.9147-1.1392,2.8719-1.7001.9573-.5613,1.9312-1.1227,2.8885-1.6671.8951-.516,1.7903-1.0036,2.6853-1.5022,1.7751-.9887,3.5595-1.9671,5.3751-2.8792,1.372-.6893,2.7134-1.3852,4.0547-2.056,1.8486-.9075,3.6972-1.7988,5.5789-2.6902.0495-.0165.1156-.0496.1815-.0826,2.0303-.9409,4.0769-1.8649,6.1236-2.7563,1.0399-.4457,2.0632-.8914,3.1031-1.3205,3.1031-1.304,6.239-2.5419,9.4082-3.7137,1.0563-.3961,2.1127-.7922,3.1856-1.1718,3.1856-1.1388,6.4042-2.1954,9.6557-3.2185,1.0894-.347,2.1622-.677,3.2516-.9905.0164-.0165.0329-.0165.0329-.0165,2.1622-.6435,4.341-1.2544,6.5362-1.8488,21.1436-5.6943,43.3765-8.7146,66.3193-8.7146,140.8748,0,255.0767,114.2183,255.0767,255.0929,0,15.1854-1.3205,30.0735-3.879,44.5319h-371.4242v-47.7835c0-22.7894,18.4745-41.2639,41.2639-41.2639Z"/>
    <path class="cls-1" d="M374.0113,520.8611v.0165l-4.063,8.4638c-7.4637,15.5482-23.1824,25.4386-40.4293,25.4386h0c-22.9851,0-43.9337-13.1811-53.8807-33.9024h0S46.6404,43.7026,46.6404,43.7026l71.9286-.0121c15.8531-.0027,30.3061,9.077,37.1844,23.3602l136.4894,283.4238,32.5819,67.904,49.1865,102.4827Z"/>
  </g>
  <g>
    <path class="cls-1" d="M1408.2431,480.3468c-13.4026,15.4987-28.4887,29.5119-44.9611,41.7424-9.1111,82.3792-79.1605,146.6682-163.9332,146.6682-46.5322,0-88.6224-19.3593-118.6411-50.458-11.0922-11.4914-27.6528-15.8418-42.8304-10.8687l-60.6269,19.8649c43.3929,77.9062,126.5974,130.5919,222.0985,130.5919,134.2232,0,244.15-104.084,253.4427-235.9468-16.3241-12.214-31.2615-26.1778-44.5484-41.5939Z"/>
    <path class="cls-1" d="M1619.0519,43.5515c-78.83,0-149.309,35.7509-196.102,91.9359-5.1499,6.1731-10.0025,12.5772-14.5579,19.2289-4.803,7.0479-9.2925,14.3433-13.4028,21.8699-19.7736,36.2462-31.03,77.8403-31.03,122.0419v.3797c0,24.2303-5.216,47.2553-14.5911,68.0194-26.0128,57.6868-84.0791,97.9274-151.3557,97.9274-91.5232,0-165.9633-74.4401-165.9633-165.9468s74.4401-165.9632,165.9633-165.9632c67.1609,0,125.1448,40.1084,151.2235,97.6467,8.7647-34.7771,24.0818-66.963,44.5815-95.171-46.7929-55.9868-117.1233-91.6056-195.805-91.6056-140.8915,0-255.0932,114.2018-255.0932,255.0931s114.2018,255.0767,255.0932,255.0767c78.8139,0,149.309-35.7511,196.0858-91.9359,5.1496-6.1729,10.0021-12.5937,14.5576-19.2289,4.82-7.0479,9.2929-14.3433,13.4028-21.8699,19.7736-36.2462,31.0305-77.8236,31.0305-122.0421v-.3797c0-24.2301,5.2157-47.2553,14.5906-68.0194,26.0128-57.6866,84.0791-97.9273,151.3722-97.9273,91.5072,0,165.9468,74.44,165.9468,165.9466s-74.4396,165.9633-165.9468,165.9633c-67.194,0-125.1611-40.1084-151.24-97.6467-6.7343,26.6893-17.3144,51.8603-31.1622,74.8855-4.176,6.9653-8.6494,13.7327-13.4193,20.2853,46.7769,55.9869,117.1398,91.6058,195.8215,91.6058,140.8751,0,255.0769-114.2018,255.0769-255.0932s-114.2018-255.0765-255.0769-255.0765Z"/>
  </g>
  <g>
    <path class="cls-2" d="M1620.2332,847.1967v112.5424c0,26.4856-21.8083,48.3835-48.3103,48.3835s-48.3107-21.8979-48.3107-48.3835v-112.5424h-28.5833v112.5424c0,34.6058,23.4727,65.1434,56.8153,74.253,6.5266,1.7828,13.315,2.6411,20.0787,2.6411,6.7845,0,13.532-.8528,20.0791-2.6411,33.3427-9.1096,56.8134-39.6472,56.8134-74.253v-112.5424h-28.5821Z"/>
    <path class="cls-2" d="M1283.6241,847.1967c-3.5656.4589-7.0966,1.1681-10.5883,2.1203-33.4284,9.1117-56.9683,39.6925-56.9683,74.3856v112.9305h28.6613v-112.9305c0-23.2367,16.7573-43.0043,38.8953-47.5133v-28.9926h0Z"/>
    <path class="cls-3" d="M1743.357,847.1967c-40.038,0-72.5733,32.5789-72.5733,72.6169v116.8195h28.1428v-59.3476l2.4242,1.7394c12.3086,8.7393,26.8134,13.3609,42.0064,13.3609,40.038,0,72.5711-32.5789,72.5711-72.5722,0-40.038-32.5331-72.6169-72.5711-72.6169ZM1743.357,964.1994c-24.4808,0-44.4305-19.905-44.4305-44.3859,0-24.5255,19.9497-44.4305,44.4305-44.4305s44.4305,19.905,44.4305,44.4305c0,24.4808-19.952,44.3859-44.4305,44.3859Z"/>
    <path class="cls-2" d="M1378.3439,847.1967c-52.323,0-94.7198,42.3966-94.7198,94.7174s42.3968,94.719,94.7198,94.719,94.7167-42.3962,94.7167-94.719-42.3964-94.7174-94.7167-94.7174h0ZM1311.1996,941.9141c0-37.1014,30.0424-67.1421,67.1442-67.1421s67.1419,30.0407,67.1419,67.1421-30.0409,67.1438-67.1419,67.1438-67.1442-30.0426-67.1442-67.1438h0Z"/>
    <path class="cls-2" d="M1190.5265,941.9257c0,52.2913-42.3876,94.7279-94.7268,94.7279-52.2924,0-94.68-42.4367-94.68-94.7279,0-52.3403,42.3876-94.7279,94.68-94.7279,42.3385,0,78.1735,27.7487,90.3256,66.0705h-29.5183c-10.7645-22.773-33.9218-38.5133-60.8073-38.5133-37.0778,0-67.124,30.0451-67.124,67.1707,0,37.0778,30.0463,67.1228,67.124,67.1228,32.1954,0,59.0833-22.6293,65.6383-52.8181h-97.4553v-28.6575h125.4435c.7172,4.6884,1.1003,9.4727,1.1003,14.3527Z"/>
  </g>
</svg>