<?xml version="1.0" encoding="UTF-8"?>
<svg version="1.1" xmlns="http://www.w3.org/2000/svg" width="1805" height="904">
<path d="M0 0 C0.92005325 -0.00983917 1.84010651 -0.01967834 2.78804016 -0.02981567 C41.28997378 -0.35673665 41.28997378 -0.35673665 60.25390625 4.23828125 C61.26146973 4.47434082 62.2690332 4.71040039 63.30712891 4.95361328 C111.94080495 16.6320204 156.31593424 43.82496442 187.25390625 83.23828125 C188.7537981 85.00920619 190.25380032 86.78003765 191.75390625 88.55078125 C219.8278412 122.99852119 234.07189243 168.65757111 236.63671875 212.5625 C238.33497986 241.20290357 243.30111923 267.96245694 257.25390625 293.23828125 C257.65158203 293.95967285 258.04925781 294.68106445 258.45898438 295.42431641 C263.39991464 304.2913145 268.56434103 312.56080556 275.25390625 320.23828125 C275.80304688 320.91890625 276.3521875 321.59953125 276.91796875 322.30078125 C298.86509147 348.92856995 336.11131936 362.71940459 369.48242188 366.01123047 C405.28648201 368.94443836 439.87685672 358.9153984 467.9453125 336.203125 C481.11420212 324.99508528 491.51616724 312.50445164 501.25390625 298.23828125 C501.95644531 297.21089844 502.65898438 296.18351562 503.3828125 295.125 C523.49785482 264.14547298 527.0776713 226.38319824 519.73388672 190.71240234 C518.54846052 185.77683428 516.99878382 181.00188983 515.25390625 176.23828125 C514.87492187 175.18785645 514.87492187 175.18785645 514.48828125 174.11621094 C508.81286939 158.68270737 500.95668041 145.71551186 490.25390625 133.23828125 C488.81618511 131.40512133 487.37868755 129.57178604 485.94140625 127.73828125 C464.73406796 101.93663224 431.72036532 86.35333906 398.80224609 82.44116211 C356.15908433 79.04621409 318.26551221 90.06981805 285.30078125 117.71484375 C273.21563158 128.34842516 264.08130331 141.55577764 254.84765625 154.640625 C253.7803125 156.14302734 253.7803125 156.14302734 252.69140625 157.67578125 C252.07136719 158.56136719 251.45132812 159.44695312 250.8125 160.359375 C250.29816406 160.97941406 249.78382813 161.59945312 249.25390625 162.23828125 C248.59390625 162.23828125 247.93390625 162.23828125 247.25390625 162.23828125 C243.88762839 155.67459 240.52497492 149.10905135 237.16479492 142.54223633 C236.02206792 140.31004159 234.8785221 138.07826582 233.73413086 135.84692383 C232.08620482 132.63343224 230.4412616 129.41842891 228.796875 126.203125 C228.03264473 124.71521706 228.03264473 124.71521706 227.25297546 123.19725037 C224.73691736 118.27041508 222.36150669 113.3530924 220.25390625 108.23828125 C219.92422852 107.48313232 219.59455078 106.7279834 219.25488281 105.94995117 C211.36882913 87.79009714 211.36882913 87.79009714 215.3671875 77.32421875 C218.77443228 69.74189938 223.38704732 64.05156156 229.25390625 58.23828125 C230.13175781 57.32691406 231.00960938 56.41554687 231.9140625 55.4765625 C241.72472552 45.62765453 253.46535918 38.47869236 265.25390625 31.23828125 C265.99044434 30.78291992 266.72698242 30.32755859 267.48583984 29.85839844 C292.51215595 14.56012263 320.40840986 5.79172526 349.25390625 1.23828125 C350.27282959 1.06321045 351.29175293 0.88813965 352.34155273 0.70776367 C357.33455397 0.10860352 362.26034955 0.03684959 367.28515625 0 C368.886474 -0.01210762 368.886474 -0.01210762 370.5201416 -0.02445984 C372.78277995 -0.03826018 375.04543877 -0.04900035 377.30810547 -0.05688477 C379.57672415 -0.06829698 381.84531834 -0.08857317 384.11376953 -0.1184082 C404.08959223 -0.380439 423.20151151 1.56873334 442.37890625 7.42578125 C443.3635083 7.72129883 444.34811035 8.01681641 445.36254883 8.32128906 C491.65247259 22.68315841 533.69195371 52.00921206 562.25390625 91.23828125 C562.94097656 92.11871094 563.62804688 92.99914062 564.3359375 93.90625 C570.62601904 102.10692831 575.43910892 111.12372164 580.25390625 120.23828125 C580.62580078 120.94210938 580.99769531 121.6459375 581.38085938 122.37109375 C590.25477458 139.31366869 596.51663752 156.7193278 601.25390625 175.23828125 C601.48416504 176.12435059 601.71442383 177.01041992 601.95166016 177.92333984 C609.01615489 206.62183 608.10561103 241.60492238 601.25390625 270.23828125 C601.05023437 271.14191406 600.8465625 272.04554688 600.63671875 272.9765625 C591.8201917 311.4536281 572.74210633 346.84783579 545.76171875 375.51953125 C543.98878381 377.44159156 542.312084 379.35587302 540.66015625 381.375 C537.51257154 385.12042142 533.99684127 388.10735798 530.25390625 391.23828125 C529.47402344 391.90601563 528.69414063 392.57375 527.890625 393.26171875 C493.75263782 421.96042117 452.23103581 442.04821426 407.50390625 445.92578125 C406.79893005 445.98832092 406.09395386 446.0508606 405.36761475 446.11529541 C394.63871317 447.05797942 384.02423834 447.88048739 373.25390625 447.23828125 C372.05072754 447.16867187 370.84754883 447.0990625 369.60791016 447.02734375 C320.61445174 444.03659451 276.8115108 428.06258093 238.25390625 397.23828125 C237.50625 396.69429688 236.75859375 396.1503125 235.98828125 395.58984375 C224.22669234 387.00823999 214.10415538 375.71569153 205.25390625 364.23828125 C204.44566406 363.22378906 203.63742187 362.20929688 202.8046875 361.1640625 C193.92568347 349.95818239 186.60691012 338.18624052 179.94140625 325.55078125 C179.43754395 324.60090332 178.93368164 323.65102539 178.41455078 322.67236328 C164.54282611 295.89757095 159.53498397 265.42181499 156.60400391 235.76318359 C151.92933656 188.69704196 140.51042142 144.98458688 103.37890625 112.98828125 C93.15517529 104.77730567 82.39121059 98.24666316 70.25390625 93.23828125 C69.64321289 92.98449707 69.03251953 92.73071289 68.40332031 92.46923828 C29.03479697 76.30395076 -11.89582662 79.04321022 -50.74609375 95.23828125 C-64.80705693 101.50763679 -76.59487274 110.71289407 -87.74609375 121.23828125 C-88.4215625 121.86089844 -89.09703125 122.48351562 -89.79296875 123.125 C-104.04500858 136.721446 -114.6448678 153.99157248 -121.74609375 172.23828125 C-122.22046875 173.44097656 -122.69484375 174.64367187 -123.18359375 175.8828125 C-135.20269338 208.89956536 -132.78816547 249.76958863 -119.22265625 281.83984375 C-102.14612942 318.07540069 -72.49255153 344.72635305 -35.05859375 358.60546875 C-9.61282613 367.38715487 20.09603052 368.40135586 46.25390625 362.23828125 C46.95547852 362.07730957 47.65705078 361.91633789 48.37988281 361.75048828 C83.20966246 353.44590729 112.37948416 330.81975322 131.90771484 301.26464844 C134.05491515 298.03255512 136.28424914 294.85830939 138.50390625 291.67578125 C139.75473533 289.86385331 141.00508562 288.05159404 142.25390625 286.23828125 C146.24241555 287.56778435 147.05761607 289.90925464 148.94140625 293.42578125 C149.31515381 294.10705078 149.68890137 294.78832031 150.07397461 295.49023438 C151.47978354 298.06631541 152.86704994 300.6519464 154.25390625 303.23828125 C154.86588867 304.37346191 155.47787109 305.50864258 156.10839844 306.67822266 C170.0577297 332.5574374 170.0577297 332.5574374 176.3671875 345.48828125 C177.82915824 348.44948072 179.3929871 351.34465031 180.984375 354.23828125 C181.45375488 355.09977783 181.92313477 355.96127441 182.40673828 356.84887695 C183.32413071 358.52589064 184.25294576 360.1967227 185.19482422 361.86010742 C185.60748535 362.61783447 186.02014648 363.37556152 186.4453125 364.15625 C186.81857666 364.82422607 187.19184082 365.49220215 187.57641602 366.18041992 C188.48933665 368.9533958 188.17349876 370.48004149 187.25390625 373.23828125 C184.82922868 376.52767978 181.84698859 379.30872313 178.94140625 382.17578125 C178.09271973 383.01681396 177.2440332 383.85784668 176.36962891 384.72436523 C167.74096278 393.06065507 158.37252227 399.83854437 148.25390625 406.23828125 C147.54057129 406.69493164 146.82723633 407.15158203 146.09228516 407.62207031 C120.75302986 423.68561521 93.16845417 433.80443926 64.25390625 441.23828125 C63.20372314 441.50898437 63.20372314 441.50898437 62.13232422 441.78515625 C13.52254311 453.88869177 -43.45705262 449.50139795 -87.75537109 425.32421875 C-89.90522403 424.15147582 -92.06939993 423.00784279 -94.234375 421.86328125 C-118.22339042 409.0259436 -141.28828265 391.45724703 -158.359375 370.18359375 C-159.952891 368.2171272 -161.57573135 366.27407252 -163.2265625 364.35546875 C-193.51373888 329.1378218 -212.41302533 278.66383794 -213.74609375 232.23828125 C-213.76655762 231.60003418 -213.78702148 230.96178711 -213.80810547 230.30419922 C-215.45883592 171.60095008 -192.81704664 114.21635981 -152.8203125 71.4765625 C-151.79742636 70.39537889 -150.77258157 69.31604598 -149.74609375 68.23828125 C-149.17584473 67.63935059 -148.6055957 67.04041992 -148.01806641 66.42333984 C-110.71932559 27.53912659 -54.43944407 0.47798165 0 0 Z " fill="#0D163F" transform="translate(1181.74609375,8.76171875)"/>
<path d="M0 0 C0.96988861 0.00182281 1.93977722 0.00364563 2.9390564 0.00552368 C17.2813186 0.05088767 31.26765067 0.51912597 45.375 3.3125 C46.30924805 3.48942383 47.24349609 3.66634766 48.20605469 3.84863281 C80.39087734 10.03350248 109.65212351 21.60760214 138.375 37.3125 C139.19911377 37.75883789 140.02322754 38.20517578 140.87231445 38.66503906 C156.9058159 47.43039989 171.213861 59.10055447 184.47265625 71.59375 C186.83679532 73.80834056 189.22944932 75.95423041 191.6875 78.0625 C195.78978834 81.61089286 199.5759893 85.4452436 203.375 89.3125 C204.16519531 90.08078125 204.95539062 90.8490625 205.76953125 91.640625 C248.0015956 134.9490688 273.61351 198.59323265 275.0625 258.5625 C275.08212799 259.29018585 275.10175598 260.0178717 275.12197876 260.76760864 C275.38928731 270.93931502 275.41058472 281.07874921 275.0625 291.25 C275.02793701 292.3131543 274.99337402 293.37630859 274.95776367 294.47167969 C274.14856155 312.98717102 274.14856155 312.98717102 268.875 318.4375 C264.72219221 322.11519842 262.30509368 322.43761346 256.72857571 322.43834114 C256.0343344 322.43979458 255.3400931 322.44124802 254.62481418 322.44274551 C252.27519947 322.44642395 249.92564889 322.44291059 247.57603455 322.43948364 C245.88385264 322.44063473 244.19167098 322.44222217 242.49948984 322.44421089 C237.83128717 322.44840585 233.16310479 322.44631277 228.49490201 322.44322467 C223.46760312 322.44097149 218.44030783 322.44444976 213.41300964 322.44720459 C203.55761879 322.45166206 193.70223553 322.45068595 183.84684437 322.44779195 C175.84108269 322.44553795 167.83532314 322.44522538 159.82956123 322.44631577 C158.69222283 322.446469 157.55488442 322.44662223 156.38308122 322.44678011 C154.07296001 322.44709982 151.76283881 322.44742403 149.45271761 322.4477527 C127.76739816 322.45060739 106.08208293 322.44732057 84.39676417 322.44195233 C65.7683322 322.4374837 47.13990646 322.43826074 28.51147461 322.44287109 C6.90473518 322.44821601 -14.70200055 322.45033334 -36.30874056 322.44725883 C-38.61028604 322.44694026 -40.91183152 322.44662589 -43.213377 322.44631577 C-44.34593152 322.44616149 -45.47848604 322.44600721 -46.6453604 322.44584826 C-54.64693187 322.4449829 -62.64850099 322.44644638 -70.6500721 322.44879532 C-80.39343087 322.45159258 -90.13678158 322.45085661 -99.88013942 322.44551457 C-104.8563615 322.44287664 -109.83257012 322.44187404 -114.80879211 322.44516373 C-119.35649678 322.44812478 -123.90417538 322.4465371 -128.45187765 322.44118617 C-130.10458355 322.44006117 -131.75729162 322.44065498 -133.40999616 322.44306196 C-135.64150186 322.44606475 -137.87291608 322.44302274 -140.10441685 322.43834114 C-141.34843566 322.43817879 -142.59245448 322.43801644 -143.87417084 322.43784916 C-146.625 322.3125 -146.625 322.3125 -147.625 321.3125 C-149.57520655 300.57280339 -141.46021061 278.51393535 -128.9375 262.25 C-127.52500397 260.58265823 -126.08531024 258.93812838 -124.625 257.3125 C-124.19590332 256.82894043 -123.76680664 256.34538086 -123.32470703 255.84716797 C-107.55397229 238.30619191 -85.86688646 229.93727683 -62.625 228.3125 C-57.0528701 228.05801453 -51.47992855 227.90590346 -45.90380859 227.76977539 C-45.08980174 227.74902454 -44.27579488 227.7282737 -43.43712115 227.70689404 C-22.42285971 227.17895418 -1.40604554 227.09107367 19.61378813 227.00917697 C25.11759041 226.98682932 30.62136935 226.95968672 36.12515259 226.93312073 C46.47950296 226.88383562 56.83386673 226.83866764 67.18824255 226.79509836 C79.0051176 226.74516572 90.82196919 226.69046132 102.63882136 226.63541877 C126.88419222 226.52258821 151.12958571 226.41554633 175.375 226.3125 C172.9856945 221.31323666 170.58653444 216.31885781 168.17895508 211.32836914 C167.36484699 209.6375539 166.55323421 207.94553443 165.74438477 206.25219727 C156.44999085 186.80377897 146.0884349 169.42146006 131.3828125 153.51171875 C129.67352598 151.63948468 128.08356551 149.72719465 126.5 147.75 C122.39478726 142.9362163 117.33296428 139.20122423 112.375 135.3125 C111.36050781 134.49394531 110.34601563 133.67539063 109.30078125 132.83203125 C72.29173579 103.25237498 26.53457535 92.4848377 -20.15966797 96.62597656 C-26.75699225 97.41810117 -33.18373055 98.69443328 -39.625 100.3125 C-40.47368652 100.52148926 -41.32237305 100.73047852 -42.19677734 100.94580078 C-66.9434312 107.23492755 -89.99062641 119.02543227 -109.625 135.3125 C-110.20378906 135.78977539 -110.78257812 136.26705078 -111.37890625 136.75878906 C-142.79519772 162.79766995 -160.86090545 196.1130295 -178.625 232.3125 C-185.11416666 245.46265591 -191.85892961 258.47923612 -198.61021423 271.49607849 C-200.93726882 275.98339157 -203.25916785 280.47334129 -205.578125 284.96484375 C-206.54636739 286.8395945 -207.51465081 288.71432406 -208.48294067 290.58905029 C-209.11792634 291.81866383 -209.75275371 293.04835913 -210.38742065 294.27813721 C-213.87367175 301.03207702 -217.38981483 307.76814784 -220.96899414 314.47338867 C-223.89020336 319.95002962 -226.74223982 325.33335432 -229 331.125 C-231.19450682 336.65667064 -233.98708923 341.74701466 -236.875 346.9375 C-242.28045371 356.6587366 -247.30790497 366.53833743 -252.25 376.5 C-261.17585714 394.48898264 -261.17585714 394.48898264 -265.8125 403.125 C-269.98444434 410.90910654 -273.81165327 418.84898096 -277.625 426.8125 C-283.04305894 438.11967503 -288.66915356 449.27799304 -294.625 460.3125 C-295.54044385 462.01625662 -296.45586809 463.7200238 -297.37091064 465.42399597 C-301.11298472 472.39185343 -304.86581712 479.35385653 -308.625 486.3125 C-309.945 486.3125 -311.265 486.3125 -312.625 486.3125 C-314.35069075 482.61898458 -316.07374503 478.92425045 -317.79467773 475.22851562 C-318.37668985 473.9795052 -318.95934121 472.73079239 -319.54272461 471.48242188 C-322.80684964 464.49634649 -326.00418581 457.48949794 -329.0703125 450.4140625 C-332.36880624 442.81214639 -335.86775873 435.31445147 -339.42211914 427.8293457 C-340.4660938 425.6271842 -341.50438312 423.42242341 -342.54101562 421.21679688 C-345.62639754 414.65303169 -348.72293951 408.09678825 -351.88671875 401.5703125 C-352.79992319 399.65125289 -353.71272063 397.73199954 -354.625 395.8125 C-355.03983643 394.97895996 -355.45467285 394.14541992 -355.88208008 393.28662109 C-359.11377126 386.40542673 -359.76138611 380.2990903 -357.6640625 372.94140625 C-357.19742187 371.92949219 -356.73078125 370.91757812 -356.25 369.875 C-355.9816333 369.28686523 -355.7132666 368.69873047 -355.43676758 368.09277344 C-352.85338832 362.54536689 -349.96450351 357.14841644 -347.07714844 351.75488281 C-342.55994916 343.29048825 -338.27978668 334.71101419 -334 326.125 C-333.64473236 325.41251099 -333.28946472 324.70002197 -332.9234314 323.96594238 C-331.17083702 320.45033446 -329.41972705 316.93399028 -327.66943359 313.41723633 C-325.74252909 309.54669777 -323.80971936 305.67913694 -321.875 301.8125 C-319.01006144 296.08667169 -316.15128261 290.35779729 -313.2953186 284.62748718 C-311.16136389 280.34664659 -309.02558478 276.06671737 -306.88964844 271.78686523 C-305.79940839 269.60135277 -304.70988625 267.41548202 -303.62109375 265.22924805 C-297.84223626 253.62714727 -292.01230466 242.06424785 -285.93460083 230.61553955 C-282.82319131 224.73813842 -279.92127626 218.78389319 -277.125 212.75 C-273.62076224 205.32003144 -269.94888963 198.06521374 -265.88232422 190.92895508 C-262.14753501 184.34385637 -258.63043614 177.653608 -255.11645508 170.94921875 C-233.13578736 129.01339976 -207.90967271 88.42244345 -169.625 59.3125 C-168.4718834 58.39583328 -167.32099252 57.47636245 -166.171875 56.5546875 C-156.43646505 48.76635954 -146.60422007 42.24278466 -135.625 36.3125 C-134.67987549 35.79824463 -133.73475098 35.28398926 -132.76098633 34.75415039 C-106.59554067 20.57980971 -79.88262687 10.44541705 -50.6875 4.5 C-49.73053223 4.3050293 -48.77356445 4.11005859 -47.78759766 3.90917969 C-31.8370166 0.83978228 -16.21082245 -0.06331607 0 0 Z " fill="#0D163F" transform="translate(678.625,8.6875)"/>
<path d="M0 0 C0.99 0 1.98 0 3 0 C3.14099121 1.04752441 3.28198242 2.09504883 3.42724609 3.17431641 C3.95972041 7.12930816 4.49294144 11.08419897 5.02636719 15.0390625 C5.25540622 16.73792906 5.4842533 18.43682152 5.71289062 20.13574219 C6.3691153 25.01137642 7.03046341 29.8862727 7.69662476 34.76055908 C7.97851972 36.84143789 8.25261503 38.92318569 8.5246582 41.00537109 C9.41415287 47.61572093 10.48732945 53.99199498 12.4375 60.375 C12.68918945 61.20241699 12.94087891 62.02983398 13.20019531 62.88232422 C21.62417736 89.20360764 35.70305284 115.36667414 54.703125 135.546875 C56.70318914 137.68299792 58.57396162 139.87100597 60.4375 142.125 C86.76030126 172.25202895 130.15840593 185.7944368 168.68847656 188.80517578 C194.58282589 190.32859739 219.06570054 188.34918329 244 181 C245.08539062 180.69320312 246.17078125 180.38640625 247.2890625 180.0703125 C265.73766015 174.45119785 282.55367455 163.55350872 297 151 C297.8765625 150.24589844 298.753125 149.49179687 299.65625 148.71484375 C304.88678604 144.12237009 309.59187806 139.37985223 314 134 C314.61367432 133.27079346 314.61367432 133.27079346 315.23974609 132.52685547 C322.49290432 123.89930544 328.92560467 114.89529225 335.01586914 105.40942383 C341.931357 94.73664635 349.84912904 84.70641354 362.77954102 81.51635742 C366.6239327 80.89996076 370.36602282 80.86080306 374.24609375 80.8984375 C375.09548523 80.90258667 375.94487671 80.90673584 376.82000732 80.91101074 C390.38233901 80.99886915 403.94411741 81.24223108 417.50482178 81.46356201 C421.29356061 81.52505113 425.08232839 81.58470308 428.87109375 81.64453125 C436.24742454 81.76127042 443.6237219 81.87997266 451 82 C441.13420128 128.78352311 411.77705241 173.89009557 379 208 C378.30028076 208.73259033 378.30028076 208.73259033 377.58642578 209.47998047 C345.10126424 243.32958702 300.64212652 265.28491599 256 278 C255.24477051 278.21736816 254.48954102 278.43473633 253.71142578 278.65869141 C190.44721638 296.26586997 115.42165587 287.89485807 57.91015625 257.02294922 C55.91821929 255.95620384 53.91257564 254.91829962 51.90625 253.87890625 C33.07432817 243.94233589 15.1016735 232.0547739 0 217 C-1.42568851 215.73654501 -2.86184934 214.48471411 -4.3125 213.25 C-10.30736448 208.04857346 -15.80635011 202.39912846 -20.96484375 196.37109375 C-22.54327646 194.53211361 -24.14003594 192.71762537 -25.75390625 190.91015625 C-36.24273124 179.0698014 -44.35952395 166.26290102 -52.4375 152.6875 C-53.04126465 151.68541504 -53.6450293 150.68333008 -54.26708984 149.65087891 C-59.16579967 141.28807154 -63.22631769 132.95177895 -62 123 C-61.06325712 120.07600621 -59.74435037 117.41492855 -58.34375 114.6875 C-57.77291687 113.52951904 -57.77291687 113.52951904 -57.19055176 112.34814453 C-55.97504786 109.89113533 -54.73809188 107.44569126 -53.5 105 C-52.69907417 103.3900418 -51.89958307 101.779369 -51.1015625 100.16796875 C-49.12904946 96.19388831 -47.13891912 92.22896743 -45.14190674 88.26715088 C-43.3766261 84.76234842 -41.62167656 81.2524013 -39.8671875 77.7421875 C-39.54160858 77.091362 -39.21602966 76.4405365 -38.88058472 75.76998901 C-36.6728541 71.35445857 -34.47869358 66.93234024 -32.2890625 62.5078125 C-26.60479323 51.03577778 -20.92899405 39.59046307 -14.58886719 28.46191406 C-9.33501074 19.18024855 -4.69806741 9.57133527 0 0 Z " fill="#0D163F" transform="translate(495,271)"/>
<path d="M0 0 C15.84698588 -0.46206306 30.69603307 -0.40305621 46 4 C46.65323242 4.18191895 47.30646484 4.36383789 47.97949219 4.55126953 C69.23211239 10.60258811 88.14311323 21.87980987 105 36 C106.70718485 37.33480352 108.41553529 38.66811751 110.125 40 C123.48372595 50.79053678 133.4859153 64.4198163 142.3125 79.0625 C142.9945752 80.19220215 142.9945752 80.19220215 143.69042969 81.34472656 C147.73220892 88.22416558 151.23160033 95.36835137 154.7661438 102.51559448 C156.63409502 106.27676884 158.52422459 110.02670524 160.41294861 113.77748108 C162.57907758 118.07992657 164.73955117 122.38520327 166.90014648 126.69042969 C168.00874309 128.89752846 169.11877053 131.10390913 170.23022461 133.30957031 C175.95423311 144.67163872 181.62047568 156.01273052 186.60180664 167.72265625 C188.44111692 172.03397128 190.4153327 176.27209344 192.4375 180.5 C192.81672607 181.29639893 193.19595215 182.09279785 193.58666992 182.91333008 C196.91473016 189.8754073 200.35076904 196.78026557 203.82666016 203.66943359 C206.7559194 209.48772504 209.66106156 215.31816915 212.57080078 221.14624023 C214.77895383 225.56708985 216.98823701 229.98694401 219.23046875 234.390625 C224.04748274 243.87165717 228.4298793 253.51668795 232.75976562 263.22851562 C235.00502253 268.24586924 237.28076359 273.24915137 239.5625 278.25 C239.9850708 279.18263672 240.4076416 280.11527344 240.84301758 281.07617188 C243.62907969 287.17408796 246.56543917 293.18777646 249.57635498 299.17695618 C254.3301988 308.63310777 259.00868351 318.12635932 263.68041992 327.62329102 C264.76103922 329.81766752 265.84369391 332.01104296 266.9284668 334.20336914 C273.33471401 347.15295278 279.47810134 360.16659807 285.23347473 373.41914368 C288.58565916 381.12275215 292.15865619 388.65120721 296 396.125 C297.2047737 398.50179118 298.40819263 400.87921027 299.609375 403.2578125 C300.18751953 404.4015332 300.76566406 405.54525391 301.36132812 406.72363281 C303.72555424 411.4506761 305.99323971 416.22095265 308.25 421 C311.59260409 428.07274716 315.03075426 435.09228883 318.54296875 442.08203125 C318.94450165 442.88156219 319.34603455 443.68109314 319.75973511 444.50485229 C321.7693521 448.50322001 323.78480631 452.49852617 325.80761719 456.49023438 C329.54291227 463.8873358 333.09259441 471.22977386 336 479 C336.47824219 480.1446875 336.95648438 481.289375 337.44921875 482.46875 C341.81308638 493.1512777 343.22776605 500.66076482 339.421875 511.765625 C337.05313667 517.15385396 333.76466666 521.50905252 330 526 C329.26136719 526.88945313 328.52273438 527.77890625 327.76171875 528.6953125 C319.32310266 538.46020504 311.12643544 544.81568778 297.86230469 546.22753906 C284.07238701 547.18125673 270.85324806 545.21697593 260 536 C246.8158353 523.79709946 240.16239158 505.31503507 232.62402344 489.42138672 C230.651696 485.26621584 228.66442266 481.11831785 226.67626953 476.97070312 C223.56316735 470.47476345 220.45990506 463.97422365 217.375 457.46484375 C213.66257393 449.63460367 209.94598734 441.80967107 206.0625 434.0625 C205.74265137 433.42441406 205.42280273 432.78632813 205.09326172 432.12890625 C203.27175653 428.5056266 201.43319256 424.89146367 199.5859375 421.28125 C193.64090098 409.59910792 188.11582501 397.76586237 182.73260498 385.81817627 C178.13816722 375.6270217 173.43531552 365.49867591 168.5625 355.4375 C167.74881958 353.75611938 167.74881958 353.75611938 166.91870117 352.04077148 C164.04364307 346.12900718 161.12566563 340.23989952 158.1796875 334.36328125 C153.58061658 325.1881626 149.06128389 315.97464702 144.5625 306.75 C144.14314178 305.89049744 143.72378357 305.03099487 143.29171753 304.14544678 C138.40757233 294.12567837 133.57568092 284.09822612 129.08056641 273.89648438 C126.1609964 267.2855877 123.06620937 260.76429302 119.9375 254.25 C119.46642822 253.26789551 118.99535645 252.28579102 118.51000977 251.27392578 C115.79418058 245.64057613 113.02591077 240.03547979 110.22265625 234.4453125 C106.00229794 226.0286988 101.84780858 217.58064686 97.71826172 209.11914062 C96.90749905 207.4592706 96.0953289 205.80008729 95.28173828 204.14160156 C90.62578809 194.65012255 86.11299908 185.1217449 81.86001587 175.44261169 C78.70199725 168.27215361 75.31758933 161.22473847 71.875 154.1875 C71.2049896 152.81164578 70.53523979 151.43566463 69.86572266 150.05957031 C66.17484397 142.47941982 62.46615445 134.90796836 58.75924683 127.33564758 C57.77257092 125.3200731 56.78601933 123.30443776 55.79959106 121.28874207 C53.38158398 116.34784058 50.96198162 111.4077376 48.53857422 106.46948242 C43.91066221 97.02959226 39.33152411 87.58040902 35 78 C34.57879883 77.06913574 34.15759766 76.13827148 33.72363281 75.17919922 C32.88996088 73.33496685 32.05630185 71.49072865 31.22265625 69.64648438 C26.8449447 59.99289857 22.28207828 50.45985901 17.5 41 C13.09407172 32.26912508 8.80025733 23.49819297 4.6875 14.625 C3.9759375 13.1090625 3.9759375 13.1090625 3.25 11.5625 C2.82074219 10.62664063 2.39148438 9.69078125 1.94921875 8.7265625 C1.57112061 7.90752441 1.19302246 7.08848633 0.8034668 6.24462891 C0 4 0 4 0 0 Z " fill="#0D163F" transform="translate(18,10)"/>
<path d="M0 0 C3.62813516 1.687218 5.66913551 3.5919388 8.3125 6.625 C9.50166016 7.97271484 9.50166016 7.97271484 10.71484375 9.34765625 C12.07532264 10.926742 13.4256734 12.51478988 14.75390625 14.12109375 C18.02441802 18.03782712 21.39820632 21.17885264 25.4375 24.3125 C35.80388479 32.58567247 42.73525874 43.72440046 44.7421875 56.87890625 C48.02199249 96.58442419 23.72347334 137.11674762 0 167 C-0.65226562 167.84304688 -1.30453125 168.68609375 -1.9765625 169.5546875 C-4.17616125 172.21288985 -6.5330442 174.58835711 -9 177 C-9.94573523 177.95402243 -10.88968756 178.90981491 -11.83203125 179.8671875 C-12.82549682 180.86981546 -13.81898665 181.87241938 -14.8125 182.875 C-15.29525391 183.36613281 -15.77800781 183.85726562 -16.27539062 184.36328125 C-58.31654696 226.67921638 -118.30161883 249.02993426 -177.5 249.375 C-211.52686374 249.17655318 -243.32835837 241.47596507 -274 227 C-274.69367676 226.67773438 -275.38735352 226.35546875 -276.10205078 226.0234375 C-294.75992041 217.31200513 -310.18733054 205.23193421 -325.703125 191.83203125 C-328.7724989 189.18492329 -331.87932312 186.58637917 -335 184 C-334.13904235 179.44575265 -331.47397762 177.10936489 -328.2421875 173.984375 C-327.37027267 173.12238495 -327.37027267 173.12238495 -326.48074341 172.24298096 C-324.61912782 170.40475039 -322.74769457 168.57693685 -320.875 166.75 C-318.43110897 164.35278716 -315.99145984 161.95132285 -313.5546875 159.546875 C-312.9672879 158.9678392 -312.37988831 158.38880341 -311.77468872 157.79222107 C-308.20651742 154.25518992 -304.80181076 150.63765625 -301.54833984 146.80615234 C-298.62132216 143.39175991 -295.50756802 140.16238964 -292.375 136.9375 C-291.73304687 136.24978516 -291.09109375 135.56207031 -290.4296875 134.85351562 C-289.800625 134.20962891 -289.1715625 133.56574219 -288.5234375 132.90234375 C-287.6869165 132.02823853 -287.6869165 132.02823853 -286.83349609 131.13647461 C-285 130 -285 130 -282.65136719 130.12939453 C-279.56848995 131.14169105 -276.90484068 132.47289787 -274.0546875 134.02734375 C-272.90476318 134.64988037 -271.75483887 135.27241699 -270.57006836 135.91381836 C-269.66561478 136.40928665 -269.66561478 136.40928665 -268.7428894 136.9147644 C-266.85365461 137.94918736 -264.95992343 138.97489126 -263.06469727 139.99829102 C-258.41725045 142.50930292 -253.77661364 145.03275614 -249.13720703 147.55859375 C-215.23115907 165.96864555 -176.62975471 176.81391262 -138.22412109 165.68457031 C-137.49016113 165.45866211 -136.75620117 165.23275391 -136 165 C-135.21318848 164.75862305 -134.42637695 164.51724609 -133.61572266 164.26855469 C-96.19659766 152.36212908 -66.06661489 126.6041376 -47.83203125 91.88305664 C-41.66757672 79.62775768 -37.87977365 67.07003377 -35 53.6875 C-29.88392134 30.11650943 -16.83305873 16.46039223 0 0 Z " fill="#0D163F" transform="translate(1374,381)"/>
<path d="M0 0 C0.94166016 0.804375 0.94166016 0.804375 1.90234375 1.625 C2.47855469 2.058125 3.05476563 2.49125 3.6484375 2.9375 C10.04688787 7.90257927 17.50687512 15.4989318 19.6796875 23.48046875 C19.8835544 28.87070946 18.57060255 32.56017268 14.90234375 36.625 C11.22556881 39.77652137 7.8532648 40.16613015 3.16015625 39.95703125 C-4.29436024 38.86077882 -8.04961166 33.58186394 -12.7265625 28.21875 C-24.40960628 15.43861644 -39.40859866 9.77507252 -56.4453125 8.34375 C-72.78905867 7.86714015 -87.25585283 12.75503285 -100.09765625 22.625 C-100.73703125 23.09808594 -101.37640625 23.57117188 -102.03515625 24.05859375 C-109.60513293 30.02332984 -114.05318292 38.01943862 -117.91015625 46.6875 C-118.34521484 47.65985596 -118.34521484 47.65985596 -118.7890625 48.65185547 C-125.34695343 64.06057915 -125.14375952 82.09247554 -119.09765625 97.625 C-111.57703193 114.30405382 -99.22659776 126.72574041 -82.21484375 133.6171875 C-64.80048811 139.24739271 -45.74761739 138.24157059 -29.34765625 129.9375 C-13.83270632 120.72549848 -4.74549884 108.21189443 1.48730469 91.43408203 C1.75347595 90.71914581 2.01964722 90.00420959 2.29388428 89.26760864 C2.59507172 88.45451736 2.59507172 88.45451736 2.90234375 87.625 C1.81692543 87.63832367 1.81692543 87.63832367 0.70957947 87.6519165 C-6.13115531 87.73227776 -12.97181895 87.79307344 -19.81290531 87.83224869 C-23.32949631 87.85306691 -26.84569518 87.88127697 -30.36206055 87.92675781 C-34.41068143 87.97879134 -38.45889454 87.9979927 -42.5078125 88.015625 C-43.76223648 88.03627014 -45.01666046 88.05691528 -46.30909729 88.07818604 C-53.13452242 88.07993257 -57.58653287 87.79702224 -63.09765625 83.625 C-66.02459788 80.47798757 -67.01602049 77.28974837 -67.53515625 73.0625 C-66.87785386 67.89798119 -65.40987575 64.80919809 -61.53515625 61.3125 C-57.46056147 58.49162669 -54.45443708 58.46576263 -49.62207031 58.44799805 C-48.85113037 58.44142685 -48.08019043 58.43485565 -47.28588867 58.42808533 C-44.72835192 58.40833625 -42.17087396 58.3966853 -39.61328125 58.38671875 C-38.73999931 58.38264322 -37.86671738 58.3785677 -36.96697235 58.37436867 C-32.34354386 58.35349962 -27.72014511 58.33920235 -23.09667969 58.32983398 C-18.32388725 58.31877646 -13.55156192 58.28438671 -8.77893448 58.24466228 C-5.10714866 58.21849753 -1.43547406 58.21014221 2.23639679 58.20655251 C3.9954366 58.20168503 5.75447139 58.19006642 7.5134201 58.17151451 C9.97904769 58.14712875 12.44346806 58.14808682 14.90917969 58.1550293 C15.63252502 58.14221924 16.35587036 58.12940918 17.10113525 58.11621094 C23.38015122 58.18047178 26.8266664 60.64618759 31.24609375 64.859375 C33.4406704 68.52390394 33.50438615 71.72468167 33.40234375 75.875 C33.38530396 77.05666748 33.38530396 77.05666748 33.36791992 78.26220703 C32.61562151 101.62305238 21.98389689 122.11192039 5.90234375 138.625 C5.23332031 139.34429688 4.56429688 140.06359375 3.875 140.8046875 C-10.53437046 155.92739314 -33.2445887 165.06818475 -53.9609375 165.86328125 C-79.59098195 166.38792784 -103.70031785 159.793716 -122.77172852 141.85546875 C-124.22476817 140.45671539 -125.66157726 139.04116112 -127.09765625 137.625 C-128.19787109 136.54412109 -128.19787109 136.54412109 -129.3203125 135.44140625 C-145.8461692 118.06133032 -153.65907791 94.35992747 -153.45141602 70.70556641 C-152.81892447 48.57061323 -144.49609127 28.40382146 -130.09765625 11.625 C-129.60265625 10.96242188 -129.10765625 10.29984375 -128.59765625 9.6171875 C-116.0601478 -6.51179473 -92.73261936 -16.4464105 -73.22265625 -19.625 C-47.07790298 -22.87135517 -20.48958768 -17.09373423 0 0 Z " fill="#0D163F" transform="translate(1161.09765625,700.375)"/>
<path d="M0 0 C2.47174907 1.92371421 4.82164312 3.92429362 7.15234375 6.015625 C8.08626953 6.79292969 8.08626953 6.79292969 9.0390625 7.5859375 C21.20572807 18.46758446 27.0585266 36.20654899 28.15234375 52.015625 C28.15234375 71.56113172 21.74588048 88.85295468 8.15234375 103.015625 C-4.65434472 115.7001511 -21.95874499 121.89260409 -39.84765625 122.390625 C-50.98697051 122.08051046 -69.36767264 119.49560861 -77.84765625 111.015625 C-77.86223877 111.98387207 -77.87682129 112.95211914 -77.8918457 113.94970703 C-77.95007192 117.56188824 -78.02730161 121.17346183 -78.11010742 124.78515625 C-78.14324292 126.34462581 -78.17130995 127.90421202 -78.1940918 129.46386719 C-78.22784906 131.71339352 -78.28017129 133.96186187 -78.3359375 136.2109375 C-78.34552238 137.24723801 -78.34552238 137.24723801 -78.3553009 138.30447388 C-78.52597916 143.99742507 -80.22127643 147.85073275 -83.60546875 152.35546875 C-88.22680574 155.77719039 -94.39611715 154.7429185 -99.84765625 154.015625 C-103.60093481 152.43494317 -105.35730599 150.15890759 -106.97111511 146.39620972 C-108.05919935 142.19975985 -108.13530716 138.36698764 -108.12231445 134.05126953 C-108.12998085 132.72788322 -108.12998085 132.72788322 -108.13780212 131.37776184 C-108.15167124 128.46791746 -108.15074186 125.55831098 -108.1484375 122.6484375 C-108.15232888 120.61025913 -108.15666446 118.57208156 -108.16142273 116.53390503 C-108.16888141 112.25857927 -108.16859837 107.98333607 -108.16333008 103.70800781 C-108.15756799 98.27051719 -108.17438888 92.83337082 -108.19767475 87.39593697 C-108.21253017 83.18159051 -108.21326733 78.9673244 -108.21016502 74.75295639 C-108.21067339 72.75100911 -108.21581844 70.74905674 -108.22597694 68.74713516 C-108.326628 46.1174905 -105.45840567 25.15179018 -89.22265625 7.890625 C-64.01175254 -15.81151807 -28.63852305 -19.9566114 0 0 Z M-69.81640625 28.26953125 C-77.50752607 38.42115763 -80.26124048 49.38080515 -78.84765625 62.015625 C-76.46205604 72.78611589 -70.25919285 82.15477629 -61.2734375 88.54296875 C-51.21882369 94.64697746 -40.11653742 95.74727422 -28.6953125 93.35546875 C-18.97034312 90.20474235 -11.02212819 83.83431346 -5.84765625 75.015625 C-0.46920441 63.58641485 1.14074385 52.95103747 -2.97265625 40.703125 C-7.11346875 30.27012814 -13.33803438 22.62663467 -23.6015625 17.69140625 C-40.25415176 11.37184841 -57.99687647 14.73804577 -69.81640625 28.26953125 Z " fill="#0D163F" transform="translate(1663.84765625,740.984375)"/>
<path d="M0 0 C15.19124117 11.59331563 24.38938891 27.19265241 27.0859375 46.05078125 C29.03925569 64.49403726 24.16662678 82.18470324 12.8828125 96.9296875 C10.70909643 99.41882041 8.45055262 101.74344054 6.0859375 104.05078125 C5.42335938 104.7571875 4.76078125 105.46359375 4.078125 106.19140625 C-7.16200163 117.38879475 -24.46413321 121.99566072 -39.9140625 122.42578125 C-55.3526287 122.02859219 -69.53700866 117.2465843 -81.9140625 108.05078125 C-82.9040625 107.34953125 -83.8940625 106.64828125 -84.9140625 105.92578125 C-97.16733203 95.23387017 -105.90877777 77.96183142 -107.07373047 61.84130859 C-108.01149323 42.93429922 -104.19099532 25.03364768 -91.4140625 10.48828125 C-89.9357606 8.98742898 -88.43717402 7.5061387 -86.9140625 6.05078125 C-86.01300781 5.12072266 -86.01300781 5.12072266 -85.09375 4.171875 C-61.64718168 -18.51344111 -25.87155319 -17.30550274 0 0 Z M-71.7265625 30.36328125 C-78.4754668 39.64889667 -80.90739691 49.72768451 -79.54296875 61.16015625 C-77.24396944 72.18392936 -71.22774113 81.65283385 -61.9140625 88.05078125 C-51.47203545 94.09865212 -41.5713466 95.65929439 -29.61328125 93.4375 C-19.51337672 90.46385755 -11.56977973 84.43181296 -6.1640625 75.37109375 C-5.7515625 74.60539063 -5.3390625 73.8396875 -4.9140625 73.05078125 C-4.5015625 72.32632813 -4.0890625 71.601875 -3.6640625 70.85546875 C0.54023573 62.24249668 0.55303712 51.77636472 -1.796875 42.60546875 C-6.28844721 30.97497382 -13.35736588 23.29606659 -24.44140625 17.796875 C-41.9807059 10.40512904 -59.88137892 16.15909925 -71.7265625 30.36328125 Z " fill="#0D163F" transform="translate(1392.9140625,740.94921875)"/>
<path d="M0 0 C2.92460432 2.31680146 4.92192011 4.48093068 6.22265625 7.953125 C6.47421265 11.16944885 6.47421265 11.16944885 6.47802734 15.02563477 C6.4816478 15.73031387 6.48526825 16.43499298 6.48899841 17.161026 C6.49588103 18.6887794 6.49839998 20.21655733 6.49705124 21.74432564 C6.49608296 24.17159099 6.50906678 26.5984171 6.52603149 29.02561951 C6.5721907 35.92597991 6.59687257 42.82629714 6.60351562 49.72680664 C6.60856392 53.95266121 6.63298675 58.17806104 6.66884232 62.40376091 C6.67857024 64.00509839 6.68101098 65.60649901 6.67567062 67.20785713 C6.64159796 77.93514486 7.48747648 87.02078066 13.34765625 96.328125 C20.43681532 102.80083546 27.23529259 104.83193716 36.81640625 104.42578125 C43.06676768 103.55847192 47.87504608 101.61374985 52.09765625 96.828125 C56.66539401 90.32788281 58.47029344 84.47228116 58.47802734 76.49829102 C58.4816478 75.77714111 58.48526825 75.05599121 58.48899841 74.31298828 C58.49586018 72.75634076 58.49840392 71.19966934 58.49705124 69.64300728 C58.49608103 67.17467782 58.50908583 64.70677791 58.52603149 62.23851013 C58.57215745 55.22406298 58.5969069 48.20966212 58.60351562 41.19506836 C58.60854176 36.8956056 58.63284331 32.59659459 58.66884232 28.29728508 C58.6786111 26.66473037 58.68098825 25.03211331 58.67567062 23.39953804 C58.66856657 21.11165469 58.68594743 18.82511045 58.70849609 16.53735352 C58.71134613 15.23862808 58.71419617 13.93990265 58.71713257 12.6018219 C59.40389045 7.64503856 61.1885584 3.69663745 65.08203125 0.359375 C69.26487865 -1.64562623 72.63793503 -2.68356668 77.265625 -1.7890625 C81.68100963 -0.11456533 85.20516548 2.89410676 87.29681396 7.1268158 C88.41111889 10.52844296 88.47682038 13.35943106 88.48144531 16.93969727 C88.48494995 17.62340897 88.48845459 18.30712067 88.49206543 19.0115509 C88.50084137 21.26431548 88.49504377 23.51676364 88.48828125 25.76953125 C88.48963018 27.34789591 88.4915726 28.92626017 88.49407959 30.50462341 C88.49702617 33.81407626 88.49275225 37.12342106 88.48339844 40.43286133 C88.47206963 44.64323187 88.47852429 48.85334552 88.49054337 53.0637064 C88.49783075 56.32655204 88.49544166 59.58933861 88.49028778 62.8521862 C88.48896679 64.40248585 88.49054369 65.95279111 88.49524689 67.50308418 C88.53773143 85.46015216 86.54335383 101.0491602 74.22265625 114.953125 C73.48015625 115.819375 72.73765625 116.685625 71.97265625 117.578125 C58.51870551 129.19744609 43.84722283 134.17462961 26.22265625 132.953125 C12.19873268 130.88002325 -1.31802223 124.1014953 -9.96484375 112.765625 C-16.99373098 102.60204739 -21.06094494 92.13148191 -21.09960938 79.72045898 C-21.10953918 78.94049561 -21.11946899 78.16053223 -21.12969971 77.35693359 C-21.15865648 74.80432485 -21.17249291 72.25196397 -21.18359375 69.69921875 C-21.1892485 68.82165483 -21.19490326 67.94409092 -21.20072937 67.03993416 C-21.23058699 62.40234317 -21.24912924 57.76487475 -21.2578125 53.12719727 C-21.26880835 48.34990637 -21.31695205 43.57374792 -21.37375641 38.79681301 C-21.41106354 35.10867541 -21.42142281 31.42081041 -21.42448425 27.73250008 C-21.43051904 25.97146426 -21.44651478 24.21043221 -21.47285461 22.44958305 C-21.68785626 6.98192787 -21.68785626 6.98192787 -17.88476562 2.41430664 C-12.33455637 -1.98164398 -6.53372131 -3.84843365 0 0 Z " fill="#0D163F" transform="translate(1454.77734375,734.046875)"/>
<path d="M0 0 C3.15948623 2.75614757 4.62938161 4.29852466 5.515625 8.3671875 C5.83554175 13.15139707 5.327528 16.24901804 2.25 20 C-2.05197867 24.51925032 -5.86953257 25.2135841 -12 25.75 C-19.54905949 26.5859171 -25.50689386 28.98333434 -32 33 C-32.61488281 33.38027344 -33.22976563 33.76054688 -33.86328125 34.15234375 C-41.37608799 39.60737913 -45.12536074 49.22924763 -47 58 C-47.41468787 62.85135932 -47.417495 67.67996287 -47.40625 72.546875 C-47.41550462 73.93069675 -47.42648255 75.31450793 -47.43908691 76.69830322 C-47.48172926 81.7876585 -47.49311712 86.87698907 -47.50531006 91.9664917 C-47.51686971 96.28872981 -47.54049102 100.61057964 -47.58000183 104.93265533 C-47.59348962 106.94551712 -47.58921692 108.95847284 -47.58459473 110.97137451 C-47.59470581 112.19995178 -47.60481689 113.42852905 -47.61523438 114.69433594 C-47.61728882 115.77003845 -47.61934326 116.84574097 -47.62145996 117.95404053 C-48.22158872 122.78303531 -49.94588745 126.02494589 -53.5 129.3125 C-57.68992817 132.14070151 -61.01882126 132.48995201 -66 132 C-70.37939148 130.2080655 -73.2139542 128.37817935 -75.58740234 124.21679688 C-77.87676431 118.63643236 -77.42782894 112.68817544 -77.3984375 106.75390625 C-77.40130768 105.46999496 -77.40417786 104.18608368 -77.40713501 102.86326599 C-77.41154454 100.14742157 -77.40518165 97.43187414 -77.39111328 94.71606445 C-77.37417344 91.28342835 -77.38406914 87.85149705 -77.40141201 84.41888618 C-77.55552956 48.70513246 -77.55552956 48.70513246 -70.1875 35.5 C-69.83276611 34.83403809 -69.47803223 34.16807617 -69.11254883 33.48193359 C-60.31513881 17.29342791 -46.32847959 5.68032622 -28.796875 -0.22265625 C-19.12993404 -2.90941777 -9.1349265 -5.07495917 0 0 Z " fill="#0D163F" transform="translate(1283,735)"/>
</svg>
